<svg xmlns="http://www.w3.org/2000/svg" viewBox="0 0 148.34 48.48"><defs><style>.a{isolation:isolate;}</style></defs><g class="a"><g class="a"><path d="M12.56,1.6a5.71,5.71,0,0,1,1.87,4.59H10a2.89,2.89,0,0,0-.66-2,2.41,2.41,0,0,0-1.87-.73,2.41,2.41,0,0,0-2.07.88,4,4,0,0,0-.66,2.45V8.14a4,4,0,0,0,.66,2.44,2.36,2.36,0,0,0,2,.89,2.77,2.77,0,0,0,2-.69,2.64,2.64,0,0,0,.69-1.95h4.28a5.68,5.68,0,0,1-1.82,4.53,7.56,7.56,0,0,1-5.12,1.57A7.59,7.59,0,0,1,1.9,13,7.49,7.49,0,0,1,0,7.47,7.53,7.53,0,0,1,1.9,1.89,7.59,7.59,0,0,1,7.49,0,7.5,7.5,0,0,1,12.56,1.6Z"/><path d="M29.67,1.91a7.23,7.23,0,0,1,2,5.56,7.23,7.23,0,0,1-2,5.55,8.06,8.06,0,0,1-5.76,1.91A8.09,8.09,0,0,1,18.15,13a7.25,7.25,0,0,1-2-5.56,7.26,7.26,0,0,1,2-5.57A8.09,8.09,0,0,1,23.91,0,8.11,8.11,0,0,1,29.67,1.91Zm-8,2.45a3.58,3.58,0,0,0-.77,2.43V8.14a3.58,3.58,0,0,0,.77,2.43,2.83,2.83,0,0,0,2.27.9,2.85,2.85,0,0,0,2.27-.9A3.54,3.54,0,0,0,27,8.14V6.79a3.54,3.54,0,0,0-.79-2.43,2.85,2.85,0,0,0-2.27-.9A2.83,2.83,0,0,0,21.64,4.36Z"/><path d="M44.33,14.68l-6.06-7v7H34V.25h4.05l6.06,7.11V.25h4.26V14.68Z"/><path d="M64.23,1.91a7.23,7.23,0,0,1,2,5.56,7.23,7.23,0,0,1-2,5.55,8.06,8.06,0,0,1-5.76,1.91A8.09,8.09,0,0,1,52.71,13a7.25,7.25,0,0,1-2-5.56,7.26,7.26,0,0,1,2-5.57A8.09,8.09,0,0,1,58.47,0,8.11,8.11,0,0,1,64.23,1.91Zm-8,2.45a3.58,3.58,0,0,0-.78,2.43V8.14a3.58,3.58,0,0,0,.78,2.43,3.31,3.31,0,0,0,4.54,0,3.54,3.54,0,0,0,.79-2.43V6.79a3.54,3.54,0,0,0-.79-2.43,3.31,3.31,0,0,0-4.54,0Z"/><path d="M81.55,7.07a4.11,4.11,0,0,1-2.07,1.57l3.21,6h-5.2L74.93,9.42H73.21v5.26H68.57V.25H77.4a5.43,5.43,0,0,1,2.65.6,4,4,0,0,1,1.66,1.61,4.57,4.57,0,0,1,.56,2.22A4.2,4.2,0,0,1,81.55,7.07ZM77.17,3.92a1.26,1.26,0,0,0-.92-.38h-3V6.21h3a1.23,1.23,0,0,0,.92-.39,1.33,1.33,0,0,0,.38-1A1.3,1.3,0,0,0,77.17,3.92Z"/></g><g class="a"><path d="M13,31.46v-5.2c0-.65,0-1.31.08-2s.1-1.24.15-1.71.09-.75.11-.88h-.09l-2.66,9.78H7L4.28,21.7H4.19q0,.19.12.87c.06.46.12,1,.18,1.7s.08,1.34.08,2v5.2H.31V17H6.86L9,25.35h.08L11.28,17h6.31V31.46Z"/><path d="M32.17,18.38A5.73,5.73,0,0,1,34,23H29.61A2.86,2.86,0,0,0,29,21a2.4,2.4,0,0,0-1.88-.73,2.4,2.4,0,0,0-2.06.88,4,4,0,0,0-.66,2.45v1.34A4,4,0,0,0,25,27.36a2.36,2.36,0,0,0,2,.89,2.74,2.74,0,0,0,2-.69,2.64,2.64,0,0,0,.7-2H34a5.64,5.64,0,0,1-1.81,4.53,7.59,7.59,0,0,1-5.13,1.58,7.61,7.61,0,0,1-5.59-1.89,7.57,7.57,0,0,1-1.89-5.58,7.57,7.57,0,0,1,1.89-5.58,7.65,7.65,0,0,1,5.59-1.88A7.55,7.55,0,0,1,32.17,18.38Z"/><path d="M48.29,18.38A5.7,5.7,0,0,1,50.16,23H45.74a2.86,2.86,0,0,0-.66-2,2.83,2.83,0,0,0-3.95.15,4,4,0,0,0-.66,2.45v1.34a4,4,0,0,0,.66,2.45,2.37,2.37,0,0,0,2,.89,2.76,2.76,0,0,0,2-.69,2.68,2.68,0,0,0,.69-2h4.28a5.64,5.64,0,0,1-1.81,4.53,7.59,7.59,0,0,1-5.13,1.58,7.61,7.61,0,0,1-5.59-1.89,7.57,7.57,0,0,1-1.9-5.58,7.57,7.57,0,0,1,1.9-5.58,7.65,7.65,0,0,1,5.59-1.88A7.5,7.5,0,0,1,48.29,18.38Z"/><path d="M65.45,23.84a4.14,4.14,0,0,1-2.08,1.58l3.21,6h-5.2l-2.56-5.27H57.1v5.27H52.47V17H61.3a5.46,5.46,0,0,1,2.65.6,4,4,0,0,1,1.66,1.61,4.56,4.56,0,0,1,.55,2.21A4.25,4.25,0,0,1,65.45,23.84ZM61.07,20.7a1.28,1.28,0,0,0-.93-.38h-3V23h3a1.28,1.28,0,0,0,.93-.38,1.33,1.33,0,0,0,.37-1A1.27,1.27,0,0,0,61.07,20.7Z"/><path d="M68.59,17H81.07v3.46H73.23v2h6.71v3.31H73.23V28h8v3.46H68.59Z"/><path d="M93.21,31.46l-.6-2H87.55l-.61,2H82.2L87.47,17h5.39l5.26,14.43Zm-4.69-5.27h3.12l-1.51-5.14h-.08Z"/><path d="M110,31.46l-6.06-7v7H99.67V17h4l6.06,7.11V17H114V31.46Z"/><path d="M129.89,18.68a7.26,7.26,0,0,1,2,5.56,7.25,7.25,0,0,1-2,5.56,9.66,9.66,0,0,1-11.52,0,7.28,7.28,0,0,1-2-5.57,7.29,7.29,0,0,1,2-5.57,9.7,9.7,0,0,1,11.52,0Zm-8,2.46a3.58,3.58,0,0,0-.78,2.43v1.34a3.63,3.63,0,0,0,.78,2.44,2.82,2.82,0,0,0,2.26.9,2.87,2.87,0,0,0,2.28-.9,3.63,3.63,0,0,0,.79-2.44V23.57a3.59,3.59,0,0,0-.79-2.43,2.87,2.87,0,0,0-2.28-.9A2.82,2.82,0,0,0,121.86,21.14Z"/><path d="M147.21,23.84a4.12,4.12,0,0,1-2.07,1.58l3.2,6h-5.2l-2.55-5.27h-1.72v5.27h-4.64V17h8.83a5.46,5.46,0,0,1,2.65.6,3.91,3.91,0,0,1,1.66,1.61,4.56,4.56,0,0,1,.56,2.21A4.18,4.18,0,0,1,147.21,23.84Zm-4.38-3.14a1.26,1.26,0,0,0-.92-.38h-3V23h3a1.26,1.26,0,0,0,.92-.38,1.34,1.34,0,0,0,.38-1A1.27,1.27,0,0,0,142.83,20.7Z"/></g><g class="a"><path d="M12.22,34.26a3.6,3.6,0,0,1,1.44,1.26,3.27,3.27,0,0,1,.54,1.83,3.14,3.14,0,0,1-2.41,3.35v.09a3.29,3.29,0,0,1,2.74,3.6,3.65,3.65,0,0,1-.55,2,3.76,3.76,0,0,1-1.52,1.35,4.71,4.71,0,0,1-2.12.48H.61V33.8h9.6A4.37,4.37,0,0,1,12.22,34.26Zm-7,5.16H8.43a1,1,0,0,0,.77-.32,1.16,1.16,0,0,0,.3-.81v-.21a1.11,1.11,0,0,0-.31-.78A1,1,0,0,0,8.43,37H5.24Zm0,5.46H8.77a1,1,0,0,0,.76-.33,1.13,1.13,0,0,0,.31-.81v-.21a1.13,1.13,0,0,0-.31-.8,1,1,0,0,0-.76-.33H5.24Z"/><path d="M26.05,48.23l-.61-2H20.38l-.6,2H15L20.3,33.8h5.39L31,48.23ZM21.35,43h3.12L23,37.83h-.08Z"/><path d="M43.12,34.67A3.8,3.8,0,0,1,44.94,38v.25H40.6v-.08a1.39,1.39,0,0,0-.46-1.05,2,2,0,0,0-1.41-.42,3,3,0,0,0-1.41.27.8.8,0,0,0-.5.67.9.9,0,0,0,.68.84,13,13,0,0,0,2.16.57,21.89,21.89,0,0,1,2.86.74,4.85,4.85,0,0,1,2,1.27,3.42,3.42,0,0,1,.86,2.39,4.37,4.37,0,0,1-1.73,3.8A7.86,7.86,0,0,1,39,48.48a10.13,10.13,0,0,1-5.25-1.13,4.29,4.29,0,0,1-1.88-4h4.39a1.62,1.62,0,0,0,.56,1.45,3.27,3.27,0,0,0,1.76.37A4.62,4.62,0,0,0,40,45a.74.74,0,0,0,.58-.77.85.85,0,0,0-.64-.79,12.55,12.55,0,0,0-2.09-.56A24.42,24.42,0,0,1,35,42.08a5.06,5.06,0,0,1-2-1.36,3.64,3.64,0,0,1-.85-2.55,3.82,3.82,0,0,1,1.83-3.5,8.83,8.83,0,0,1,4.64-1.12A8.51,8.51,0,0,1,43.12,34.67Z"/><path d="M58.07,34.67A3.78,3.78,0,0,1,59.89,38v.25H55.55v-.08a1.35,1.35,0,0,0-.46-1.05,2,2,0,0,0-1.41-.42,3,3,0,0,0-1.41.27.78.78,0,0,0-.49.67.89.89,0,0,0,.67.84,13,13,0,0,0,2.16.57,21.89,21.89,0,0,1,2.86.74,4.85,4.85,0,0,1,2,1.27,3.37,3.37,0,0,1,.86,2.39,4.37,4.37,0,0,1-1.73,3.8,7.81,7.81,0,0,1-4.62,1.23,10.15,10.15,0,0,1-5.26-1.13c-1.25-.75-1.87-2.09-1.87-4h4.38a1.62,1.62,0,0,0,.56,1.45,3.29,3.29,0,0,0,1.77.37A4.59,4.59,0,0,0,55,45a.74.74,0,0,0,.58-.77.85.85,0,0,0-.64-.79,12.55,12.55,0,0,0-2.09-.56,24.42,24.42,0,0,1-2.91-.78,5,5,0,0,1-2-1.36A3.6,3.6,0,0,1,47,38.17a3.82,3.82,0,0,1,1.83-3.5,8.84,8.84,0,0,1,4.65-1.12A8.5,8.5,0,0,1,58.07,34.67Z"/></g></g></svg>